{
  "accessors": [
    {
      "bufferView": 2,
      "componentType": 5126,
      "count": 64,
      "max": [
        -4.0667648315429688,
        -6.1643781661987305,
        -0.098287999629974365
      ],
      "min": [
        -4.276644229888916,
        -9.9593172073364258,
        -0.69011402130126953
      ],
      "type": "VEC3"
    },
    {
      "bufferView": 2,
      "byteOffset": 768,
      "componentType": 5126,
      "count": 64,
      "max": [
        0.77656614780426025,
        0.64529305696487427,
        0.64038693904876709
      ],
      "min": [
        -0.77803313732147217,
        -0.64708822965621948,
        -0.088418997824192047
      ],
      "type": "VEC3"
    },
    {
      "bufferView": 1,
      "componentType": 5126,
      "count": 64,
      "max": [
        0,
        0
      ],
      "min": [
        0,
        0
      ],
      "type": "VEC2"
    },
    {
      "bufferView": 0,
      "componentType": 5125,
      "count": 144,
      "max": [
        63
      ],
      "min": [
        0
      ],
      "type": "SCALAR"
    },
    {
      "bufferView": 2,
      "byteOffset": 1536,
      "componentType": 5126,
      "count": 7206,
      "max": [
        -3.3489990234375,
        -5.1553730964660645,
        3.5450620651245117
      ],
      "min": [
        -4.9940347671508789,
        -10.966739654541016,
        -1.614861011505127
      ],
      "type": "VEC3"
    },
    {
      "bufferView": 2,
      "byteOffset": 88008,
      "componentType": 5126,
      "count": 7206,
      "max": [
        0.9999995231628418,
        0.99999558925628662,
        1
      ],
      "min": [
        -0.99999886751174927,
        -0.99998533725738525,
        -1
      ],
      "type": "VEC3"
    },
    {
      "bufferView": 3,
      "componentType": 5126,
      "count": 7206,
      "max": [
        0.99999797344207764,
        0.99999231100082397,
        0.99999880790710449,
        1
      ],
      "min": [
        -0.9999995231628418,
        -0.99999886751174927,
        -1,
        -1
      ],
      "type": "VEC4"
    },
    {
      "bufferView": 1,
      "byteOffset": 512,
      "componentType": 5126,
      "count": 7206,
      "max": [
        0.99770098924636841,
        0.99982398748397827
      ],
      "min": [
        0.002933999989181757,
        0.0043950001709163189
      ],
      "type": "VEC2"
    },
    {
      "bufferView": 0,
      "byteOffset": 576,
      "componentType": 5125,
      "count": 26550,
      "max": [
        7205
      ],
      "min": [
        0
      ],
      "type": "SCALAR"
    },
    {
      "bufferView": 2,
      "byteOffset": 174480,
      "componentType": 5126,
      "count": 5555,
      "max": [
        -3.3794870376586914,
        -5.1553730964660645,
        3.5450611114501953
      ],
      "min": [
        -4.9619479179382324,
        -10.966739654541016,
        -1.614861011505127
      ],
      "type": "VEC3"
    },
    {
      "bufferView": 2,
      "byteOffset": 241140,
      "componentType": 5126,
      "count": 5555,
      "max": [
        0.99997866153717041,
        0.99997878074645996,
        1
      ],
      "min": [
        -0.99997866153717041,
        -0.99997889995574951,
        -1
      ],
      "type": "VEC3"
    },
    {
      "bufferView": 3,
      "byteOffset": 115296,
      "componentType": 5126,
      "count": 5555,
      "max": [
        0.99999761581420898,
        0.99999988079071045,
        0.98041278123855591,
        1
      ],
      "min": [
        -0.99998527765274048,
        -0.99999988079071045,
        -0.99999880790710449,
        -1
      ],
      "type": "VEC4"
    },
    {
      "bufferView": 1,
      "byteOffset": 58160,
      "componentType": 5126,
      "count": 5555,
      "max": [
        0.9983680248260498,
        0.99860298633575439
      ],
      "min": [
        0.002933999989181757,
        0.0040959999896585941
      ],
      "type": "VEC2"
    },
    {
      "bufferView": 0,
      "byteOffset": 106776,
      "componentType": 5125,
      "count": 8622,
      "max": [
        5554
      ],
      "min": [
        0
      ],
      "type": "SCALAR"
    }
  ],
  "asset": {
    "extras": {
      "author": "tosbin (https://sketchfab.com/tosbin)",
      "license": "CC-BY-4.0 (http://creativecommons.org/licenses/by/4.0/)",
      "source": "https://sketchfab.com/3d-models/sci-fi-portal-2GIGrNhjs4GUNoV8WozbPlODGjC",
      "title": "Sci Fi Portal"
    },
    "generator": "Sketchfab-6.84.0",
    "version": "2.0"
  },
  "bufferViews": [
    {
      "buffer": 0,
      "byteLength": 141264,
      "byteOffset": 0,
      "name": "floatBufferViews",
      "target": 34963
    },
    {
      "buffer": 0,
      "byteLength": 102600,
      "byteOffset": 141264,
      "byteStride": 8,
      "name": "floatBufferViews",
      "target": 34962
    },
    {
      "buffer": 0,
      "byteLength": 307800,
      "byteOffset": 243864,
      "byteStride": 12,
      "name": "floatBufferViews",
      "target": 34962
    },
    {
      "buffer": 0,
      "byteLength": 204176,
      "byteOffset": 551664,
      "byteStride": 16,
      "name": "floatBufferViews",
      "target": 34962
    }
  ],
  "buffers": [
    {
      "byteLength": 755840,
      "uri": "scene.bin"
    }
  ],
  "images": [
    {
      "uri": "textures/blinn1SG_baseColor.png"
    },
    {
      "uri": "textures/blinn1SG_metallicRoughness.png"
    },
    {
      "uri": "textures/blinn1SG_emissive.png"
    }
  ],
  "materials": [
    {
      "doubleSided": true,
      "emissiveFactor": [
        1,
        1,
        1
      ],
      "emissiveTexture": {
        "index": 2,
        "texCoord": 0
      },
      "name": "blinn1SG",
      "occlusionTexture": {
        "index": 1,
        "strength": 1,
        "texCoord": 0
      },
      "pbrMetallicRoughness": {
        "baseColorFactor": [
          1,
          1,
          1,
          1
        ],
        "baseColorTexture": {
          "index": 0,
          "texCoord": 0
        },
        "metallicFactor": 0.41634908536585363,
        "metallicRoughnessTexture": {
          "index": 1,
          "texCoord": 0
        },
        "roughnessFactor": 0.63586128048780488
      }
    }
  ],
  "meshes": [
    {
      "primitives": [
        {
          "attributes": {
            "NORMAL": 1,
            "POSITION": 0,
            "TEXCOORD_0": 2
          },
          "indices": 3,
          "material": 0,
          "mode": 4
        }
      ]
    },
    {
      "primitives": [
        {
          "attributes": {
            "NORMAL": 5,
            "POSITION": 4,
            "TANGENT": 6,
            "TEXCOORD_0": 7
          },
          "indices": 8,
          "material": 0,
          "mode": 4
        }
      ]
    },
    {
      "primitives": [
        {
          "attributes": {
            "NORMAL": 10,
            "POSITION": 9,
            "TANGENT": 11,
            "TEXCOORD_0": 12
          },
          "indices": 13,
          "material": 0,
          "mode": 4
        }
      ]
    }
  ],
  "nodes": [
    {
      "children": [
        1
      ],
      "name": "RootNode (gltf orientation matrix)",
      "rotation": [
        -0.70710678118654746,
        -0,
        -0,
        0.70710678118654757
      ]
    },
    {
      "children": [
        2
      ],
      "name": "RootNode (model correction matrix)"
    },
    {
      "children": [
        3,
        4,
        5
      ],
      "name": "maya2sketchfab.obj.cleaner.materialmerger.gles"
    },
    {
      "mesh": 0,
      "name": ""
    },
    {
      "mesh": 1,
      "name": ""
    },
    {
      "mesh": 2,
      "name": ""
    }
  ],
  "samplers": [
    {
      "magFilter": 9729,
      "minFilter": 9987,
      "wrapS": 10497,
      "wrapT": 10497
    }
  ],
  "scene": 0,
  "scenes": [
    {
      "name": "OSG_Scene",
      "nodes": [
        0
      ]
    }
  ],
  "textures": [
    {
      "sampler": 0,
      "source": 0
    },
    {
      "sampler": 0,
      "source": 1
    },
    {
      "sampler": 0,
      "source": 2
    }
  ]
}

